<?xml version="1.0" encoding="UTF-8"?>
<svg id="Layer_1" xmlns="http://www.w3.org/2000/svg" xmlns:xlink="http://www.w3.org/1999/xlink" viewBox="0 0 500 500">
  <defs>
    <filter id="drop-shadow-1" filterUnits="userSpaceOnUse">
      <feOffset dx="6.66" dy="6.66"/>
      <feGaussianBlur result="blur" stdDeviation="4.76"/>
      <feFlood flood-color="#471207" flood-opacity=".2"/>
      <feComposite in2="blur" operator="in"/>
      <feComposite in="SourceGraphic"/>
    </filter>
    <linearGradient id="linear-gradient" x1="37" y1="267.63" x2="433.34" y2="267.63" gradientUnits="userSpaceOnUse">
      <stop offset=".19" stop-color="#00cfbb"/>
      <stop offset=".28" stop-color="#04cfb9"/>
      <stop offset=".39" stop-color="#11d0b6"/>
      <stop offset=".49" stop-color="#26d2b0"/>
      <stop offset=".6" stop-color="#44d5a8"/>
      <stop offset=".7" stop-color="#6bd89e"/>
      <stop offset=".81" stop-color="#9adc91"/>
      <stop offset=".92" stop-color="#d1e183"/>
      <stop offset="1" stop-color="#ffe677"/>
    </linearGradient>
    <linearGradient id="linear-gradient-2" x1="78.19" y1="476.72" x2="421.48" y2="27.28" gradientUnits="userSpaceOnUse">
      <stop offset="0" stop-color="#99ece4"/>
      <stop offset=".17" stop-color="#6ae3d7"/>
      <stop offset=".35" stop-color="#44dccd"/>
      <stop offset=".52" stop-color="#26d6c5"/>
      <stop offset=".68" stop-color="#11d2bf"/>
      <stop offset=".85" stop-color="#04cfbc"/>
      <stop offset="1" stop-color="#00cfbb"/>
    </linearGradient>
  </defs>
  <rect x="0" y="0" width="500" height="500" rx="60.42" ry="60.42" style="fill: #ffde4c; filter: url(#drop-shadow-1);"/>
  <g>
    <circle cx="235.17" cy="267.63" r="198.17" style="fill: url(#linear-gradient); stroke: #003950; stroke-miterlimit: 10; stroke-width: 30.47px;"/>
    <circle cx="264.83" cy="232.37" r="198.17" style="fill: url(#linear-gradient-2); stroke: #003950; stroke-miterlimit: 10; stroke-width: 30.47px;"/>
    <path d="M44.82,300.23l32.59-3.37M70.41,362.7l26.15-11.95M112.52,406.11l20.34-20.34M174.98,412.3l-12.77,22.11M224.05,450.16l.49-19.62" style="fill: none; stroke: #003950; stroke-linecap: round; stroke-miterlimit: 10; stroke-width: 10.16px;"/>
    <g>
      <polyline points="147.17 298.54 232.76 212.96 264.52 244.72 326.71 182.53" style="fill: none; stroke: #003950; stroke-linecap: round; stroke-linejoin: round; stroke-width: 40.63px;"/>
      <path d="M263.64,136.77l108.83,108.83c3.75,3.75,10.16,1.09,10.16-4.21v-108.81c-.01-3.29-2.68-5.95-5.96-5.95h-108.81c-5.3-.01-7.96,6.4-4.21,10.14Z" style="fill: #003950;"/>
    </g>
  </g>
</svg>